<?xml version="1.0" standalone="no"?>
<!DOCTYPE svg PUBLIC "-//W3C//DTD SVG 20010904//EN"
 "http://www.w3.org/TR/2001/REC-SVG-20010904/DTD/svg10.dtd">
<svg version="1.0" xmlns="http://www.w3.org/2000/svg"
 width="577.000000pt" height="577.000000pt" viewBox="0 0 577.000000 577.000000"
 preserveAspectRatio="xMidYMid meet">
<metadata>
Created by potrace 1.14, written by Peter Selinger 2001-2017
</metadata>
<g transform="translate(0.000000,577.000000) scale(0.100000,-0.100000)"
fill="#000000" stroke="none">
<path d="M4335 5016 c-286 -147 -793 -404 -1380 -701 -636 -321 -839 -427
-843 -437 -2 -4 -8 -8 -12 -8 -5 0 -25 -9 -44 -21 l-36 -21 67 -76 c105 -118
136 -153 158 -176 11 -12 52 -57 90 -101 38 -44 74 -85 80 -91 11 -12 141
-156 166 -186 27 -31 143 -160 154 -172 14 -15 51 -79 115 -201 29 -55 65
-122 80 -150 213 -392 255 -485 221 -485 -3 0 -17 -10 -31 -22 -14 -13 -72
-61 -130 -108 -58 -46 -110 -89 -116 -95 -6 -5 -30 -26 -54 -45 -24 -19 -51
-42 -60 -50 -9 -8 -31 -27 -50 -41 -19 -15 -46 -37 -60 -49 -14 -12 -40 -34
-59 -48 -19 -15 -42 -34 -51 -42 -8 -8 -31 -27 -50 -41 -19 -15 -44 -35 -55
-45 -11 -11 -36 -31 -55 -46 -19 -15 -48 -39 -65 -53 -16 -15 -45 -39 -64 -53
-18 -15 -42 -34 -53 -44 -10 -9 -37 -31 -60 -50 -23 -18 -46 -37 -52 -43 -10
-9 -34 -28 -130 -105 -10 -8 -29 -24 -41 -35 -13 -11 -38 -32 -56 -47 -19 -14
-45 -36 -59 -48 -14 -12 -40 -34 -59 -48 -19 -15 -39 -32 -45 -37 -6 -6 -47
-40 -91 -75 -78 -63 -96 -78 -143 -118 -13 -11 -42 -35 -64 -54 -86 -68 -89
-73 -83 -91 4 -9 12 -17 17 -17 10 0 550 270 558 279 3 3 145 76 315 161 590
296 1530 773 1565 795 19 12 67 39 105 60 85 46 80 41 64 58 -14 13 -126 139
-162 181 -24 27 -54 61 -113 128 -48 52 -144 161 -181 204 -21 25 -118 133
-163 184 -67 74 -94 111 -125 167 -65 118 -94 171 -167 308 -136 253 -150 279
-194 361 l-44 82 96 78 c53 44 106 87 118 98 11 10 37 30 56 45 19 14 40 31
45 37 6 6 73 62 150 125 77 62 142 116 145 119 3 3 41 34 85 69 44 36 85 69
90 75 6 6 30 27 55 46 44 35 82 66 104 85 6 6 61 51 121 100 61 49 121 99 135
111 26 22 352 291 430 354 24 19 48 40 54 45 6 6 34 28 61 50 28 21 53 44 57
49 8 12 -9 36 -26 36 -6 -1 -110 -52 -231 -114z"/>
<path d="M4809 4318 c-13 -18 -42 -55 -64 -83 -61 -76 -201 -257 -295 -380
-46 -60 -87 -112 -90 -115 -3 -3 -18 -23 -35 -45 -34 -47 -37 -50 -71 -90 -29
-34 -50 -70 -37 -62 4 2 76 37 158 77 83 40 217 106 299 147 82 40 153 72 157
71 4 -2 20 -20 36 -40 33 -43 183 -228 198 -244 5 -6 21 -25 35 -43 14 -18 30
-38 35 -44 29 -34 92 -113 98 -123 4 -7 -211 -229 -534 -550 -717 -715 -699
-697 -699 -705 0 -3 6 -12 14 -19 12 -9 64 21 283 166 894 592 1458 967 1462
970 5 5 -91 125 -414 519 -81 99 -160 196 -176 215 -15 19 -54 67 -86 106 -32
39 -73 89 -91 112 -19 23 -43 51 -54 64 -11 13 -38 47 -60 76 -22 28 -41 52
-43 52 -1 0 -13 -14 -26 -32z"/>
<path d="M1800 3701 c-58 -38 -161 -105 -230 -150 -69 -44 -132 -85 -140 -91
-8 -5 -82 -53 -165 -106 -82 -53 -179 -115 -215 -139 -36 -23 -114 -74 -175
-113 -198 -128 -379 -244 -460 -297 -44 -29 -120 -78 -168 -109 -80 -51 -87
-58 -77 -77 7 -11 17 -18 23 -16 7 3 230 91 497 196 267 105 493 195 502 201
10 5 26 10 36 10 10 0 22 4 28 9 11 10 545 221 559 221 6 0 39 -57 75 -127 36
-70 102 -199 147 -288 l83 -160 -28 -25 c-15 -14 -51 -45 -81 -70 -29 -25 -61
-52 -71 -60 -10 -8 -68 -58 -130 -110 -62 -52 -129 -110 -149 -127 -20 -18
-39 -33 -43 -33 -5 0 -8 -7 -8 -16 0 -8 4 -12 10 -9 10 6 151 45 185 51 11 2
192 47 401 100 l382 97 -110 216 c-61 119 -136 266 -168 326 -32 61 -114 220
-183 355 -179 348 -211 410 -217 410 -3 0 -52 -31 -110 -69z"/>
</g>
</svg>
